<svg xmlns="http://www.w3.org/2000/svg" class="mdc-top-app-bar__logo" clip-rule="evenodd" fill-rule="evenodd" stroke-linejoin="round" stroke-miterlimit="2" viewBox="0 0 444 263" xml:space="preserve"><path d="M5074.5 13845.5s62.5 34.4 62.5 79c0 34.5-28.01 62.5-62.5 62.5-34.49 0-62.5-28-62.5-62.5 0-44.6 62.5-79 62.5-79Z" fill="url(#a)" transform="matrix(-.60382 -.60382 .60382 -.60382 -5290.88 11680.4)"></path><path d="M4796.35 13671.2c0-43 60.29-76.2 60.29-76.2s60.3 33.2 60.3 76.2v196.1c0 33.3-27.02 60.3-60.3 60.3s-60.29-27-60.29-60.3v-196.1Z" fill="url(#b)" transform="matrix(.76656 -.44258 .44258 .76656 -9638.51 -8272)"></path><path d="M4796.35 13671.2c0-43 60.29-76.2 60.29-76.2s60.3 33.2 60.3 76.2v196.1c0 33.3-27.02 60.3-60.3 60.3s-60.29-27-60.29-60.3v-196.1Z" fill="url(#c)" transform="matrix(.76656 -.44258 .44258 .76656 -9469.69 -8272)"></path><defs><linearGradient gradientTransform="matrix(0 -141.487 160.148 0 5074.5 13987)" gradientUnits="userSpaceOnUse" id="a" x1="0" x2="1" y1="0" y2="0"><stop offset="0" stop-color="#6f17ba"></stop><stop offset="1" stop-color="#b038fa"></stop></linearGradient><linearGradient gradientTransform="matrix(0 -332.592 917.287 0 4856.64 13927.6)" gradientUnits="userSpaceOnUse" id="b" x1="0" x2="1" y1="0" y2="0"><stop offset="0" stop-color="#c41baf"></stop><stop offset="1" stop-color="#f52586"></stop></linearGradient><linearGradient gradientTransform="matrix(0 -332.592 917.287 0 4856.64 13927.6)" gradientUnits="userSpaceOnUse" id="c" x1="0" x2="1" y1="0" y2="0"><stop offset="0" stop-color="#3054b6"></stop><stop offset="1" stop-color="#00a4fc"></stop></linearGradient></defs></svg>